#define 36dc7ef45ac74cb8ba595625a27df82bs5ywtMvg9uosPFRE_width 32
#define 36dc7ef45ac74cb8ba595625a27df82bs5ywtMvg9uosPFRE_height 32
static char 36dc7ef45ac74cb8ba595625a27df82bs5ywtMvg9uosPFRE_bits[] = {
  0x00, 0x00, 0x00, 0x00, 0x00, 0x00, 0x00, 0x00, 0x20, 0x00, 0x00, 0x00, 
  0x60, 0x00, 0x00, 0x00, 0xE0, 0x00, 0x00, 0x00, 0xE0, 0x01, 0x00, 0x00, 
  0xE0, 0x03, 0x00, 0x00, 0xE0, 0x07, 0x00, 0x00, 0xE0, 0x0F, 0x00, 0x00, 
  0xE0, 0x3F, 0x00, 0x00, 0xE0, 0x01, 0x00, 0x00, 0x60, 0x43, 0x00, 0x00, 
  0x20, 0x27, 0x00, 0x00, 0x80, 0x46, 0x00, 0x00, 0x00, 0x16, 0x00, 0x00, 
  0x40, 0x00, 0x00, 0x00, 0x00, 0x02, 0x00, 0x00, 0x00, 0x10, 0x00, 0x00, 
  0x00, 0x00, 0x00, 0x00, 0x00, 0x00, 0x00, 0x00, 0x00, 0x00, 0x00, 0x00, 
  0x00, 0x00, 0x00, 0x00, 0x00, 0x00, 0x00, 0x00, 0x00, 0x00, 0x00, 0x00, 
  0x00, 0x00, 0x00, 0x00, 0x00, 0x00, 0x00, 0x00, 0x00, 0x00, 0x00, 0x00, 
  0x00, 0x00, 0x00, 0x00, 0x00, 0x00, 0x00, 0x00, 0x00, 0x00, 0x00, 0x00, 
  0x00, 0x00, 0x00, 0x00, 0x00, 0x00, 0x00, 0x00, };
