#define b0d3339898644e18d9a39b2ab3c54f2ev1sG1pZJvUpwCety_width 32
#define b0d3339898644e18d9a39b2ab3c54f2ev1sG1pZJvUpwCety_height 32
static char b0d3339898644e18d9a39b2ab3c54f2ev1sG1pZJvUpwCety_bits[] = {
  0x00, 0x00, 0x00, 0x00, 0x00, 0x00, 0x00, 0x00, 0xC0, 0x00, 0x00, 0x00, 
  0xC0, 0x00, 0x00, 0x00, 0xC0, 0x00, 0x00, 0x00, 0xC0, 0x08, 0x00, 0x00, 
  0xC0, 0x2E, 0x00, 0x00, 0xC0, 0x3F, 0x00, 0x00, 0xCC, 0x3F, 0x00, 0x00, 
  0xD8, 0x3F, 0x00, 0x00, 0xF0, 0x3F, 0x00, 0x00, 0xF0, 0xBF, 0x01, 0x00, 
  0xE0, 0x3F, 0x00, 0x00, 0xE0, 0x5F, 0x00, 0x00, 0xC0, 0x0F, 0x00, 0x00, 
  0x00, 0x60, 0x00, 0x00, 0x00, 0x25, 0x00, 0x00, 0x00, 0x08, 0x00, 0x00, 
  0x00, 0x00, 0x00, 0x00, 0x00, 0x00, 0x00, 0x00, 0x00, 0x00, 0x00, 0x00, 
  0x00, 0x00, 0x00, 0x00, 0x00, 0x00, 0x00, 0x00, 0x00, 0x00, 0x00, 0x00, 
  0x00, 0x00, 0x00, 0x00, 0x00, 0x00, 0x00, 0x00, 0x00, 0x00, 0x00, 0x00, 
  0x00, 0x00, 0x00, 0x00, 0x00, 0x00, 0x00, 0x00, 0x00, 0x00, 0x00, 0x00, 
  0x00, 0x00, 0x00, 0x00, 0x00, 0x00, 0x00, 0x00, };
