#define 83ad8ac37ed44025d9872f66938c7ecakwI8iH0jA5oCeT2R_width 32
#define 83ad8ac37ed44025d9872f66938c7ecakwI8iH0jA5oCeT2R_height 32
static char 83ad8ac37ed44025d9872f66938c7ecakwI8iH0jA5oCeT2R_bits[] = {
  0x00, 0x00, 0x00, 0x00, 0x00, 0x00, 0x00, 0x00, 0xC0, 0x00, 0x00, 0x00, 
  0xC0, 0x00, 0x00, 0x00, 0xC0, 0x04, 0x00, 0x00, 0xC0, 0x00, 0x00, 0x00, 
  0xC0, 0x16, 0x00, 0x00, 0xC0, 0x56, 0x00, 0x00, 0xCC, 0x56, 0x00, 0x00, 
  0xDC, 0x7F, 0x01, 0x00, 0xF8, 0x7F, 0x00, 0x00, 0xF0, 0x7F, 0x01, 0x00, 
  0xF0, 0x7F, 0x00, 0x00, 0xE0, 0x3F, 0x01, 0x00, 0xC0, 0x3F, 0x01, 0x00, 
  0x80, 0x9F, 0x00, 0x00, 0x00, 0x00, 0x00, 0x00, 0x00, 0xC2, 0x00, 0x00, 
  0x00, 0x28, 0x00, 0x00, 0x00, 0x00, 0x00, 0x00, 0x00, 0x00, 0x00, 0x00, 
  0x00, 0x00, 0x00, 0x00, 0x00, 0x00, 0x00, 0x00, 0x00, 0x00, 0x00, 0x00, 
  0x00, 0x00, 0x00, 0x00, 0x00, 0x00, 0x00, 0x00, 0x00, 0x00, 0x00, 0x00, 
  0x00, 0x00, 0x00, 0x00, 0x00, 0x00, 0x00, 0x00, 0x00, 0x00, 0x00, 0x00, 
  0x00, 0x00, 0x00, 0x00, 0x00, 0x00, 0x00, 0x00, };
