#define 84919c6737d646e4c23eefd740e265b8oibXsuTKkTHLwGOs_width 32
#define 84919c6737d646e4c23eefd740e265b8oibXsuTKkTHLwGOs_height 32
static char 84919c6737d646e4c23eefd740e265b8oibXsuTKkTHLwGOs_bits[] = {
  0x00, 0x00, 0x00, 0x00, 0x00, 0x00, 0x00, 0x00, 0x00, 0x00, 0x00, 0x00, 
  0x00, 0x00, 0x00, 0x00, 0x80, 0x1F, 0x00, 0x00, 0xE0, 0x7F, 0x00, 0x00, 
  0xF0, 0xFF, 0x00, 0x00, 0xF0, 0xF2, 0x00, 0x00, 0xF8, 0xE0, 0x01, 0x00, 
  0x38, 0xC2, 0x01, 0x00, 0x38, 0xC2, 0x05, 0x00, 0xF8, 0xC0, 0x01, 0x00, 
  0x38, 0xC0, 0x09, 0x00, 0x78, 0xE0, 0x01, 0x00, 0xF0, 0xF0, 0x04, 0x00, 
  0xF0, 0xFF, 0x02, 0x00, 0xE0, 0x7F, 0x04, 0x00, 0x80, 0x1F, 0x01, 0x00, 
  0x00, 0x40, 0x01, 0x00, 0x00, 0x24, 0x00, 0x00, 0x00, 0x81, 0x00, 0x00, 
  0x00, 0x00, 0x00, 0x00, 0x00, 0x00, 0x00, 0x00, 0x00, 0x00, 0x00, 0x00, 
  0x00, 0x00, 0x00, 0x00, 0x00, 0x00, 0x00, 0x00, 0x00, 0x00, 0x00, 0x00, 
  0x00, 0x00, 0x00, 0x00, 0x00, 0x00, 0x00, 0x00, 0x00, 0x00, 0x00, 0x00, 
  0x00, 0x00, 0x00, 0x00, 0x00, 0x00, 0x00, 0x00, };
