#define 1e365697282846f7c5321c8c39e2dbc0DUebIqgriecLN4XJ_width 32
#define 1e365697282846f7c5321c8c39e2dbc0DUebIqgriecLN4XJ_height 32
static char 1e365697282846f7c5321c8c39e2dbc0DUebIqgriecLN4XJ_bits[] = {
  0x00, 0x00, 0x00, 0x00, 0x00, 0x00, 0x00, 0x00, 0x00, 0x00, 0x00, 0x00, 
  0x00, 0x00, 0x00, 0x00, 0x08, 0x00, 0x00, 0x00, 0x18, 0x00, 0x00, 0x00, 
  0xB8, 0x00, 0x00, 0x00, 0x78, 0x00, 0x00, 0x00, 0xF8, 0x00, 0x00, 0x00, 
  0xF8, 0x01, 0x00, 0x00, 0xF8, 0x03, 0x00, 0x00, 0xF8, 0x07, 0x00, 0x00, 
  0xF8, 0x0B, 0x00, 0x00, 0xF8, 0x05, 0x00, 0x00, 0xC0, 0x1D, 0x00, 0x00, 
  0xBC, 0x01, 0x00, 0x00, 0x50, 0x05, 0x00, 0x00, 0x80, 0x02, 0x00, 0x00, 
  0x00, 0x04, 0x00, 0x00, 0x00, 0x01, 0x00, 0x00, 0x00, 0x00, 0x00, 0x00, 
  0x00, 0x00, 0x00, 0x00, 0x00, 0x00, 0x00, 0x00, 0x00, 0x00, 0x00, 0x00, 
  0x00, 0x00, 0x00, 0x00, 0x00, 0x00, 0x00, 0x00, 0x00, 0x00, 0x00, 0x00, 
  0x00, 0x00, 0x00, 0x00, 0x00, 0x00, 0x00, 0x00, 0x00, 0x00, 0x00, 0x00, 
  0x00, 0x00, 0x00, 0x00, 0x00, 0x00, 0x00, 0x00, };
